<svg width="47" height="47" viewBox="0 0 47 47" fill="none" xmlns="http://www.w3.org/2000/svg">
<path d="M20.0994 40.1967C24.5589 40.1958 28.8899 38.703 32.4028 35.956L43.4474 47L47 43.4476L35.9554 32.4036C38.704 28.8905 40.1978 24.5588 40.1989 20.0984C40.1989 9.01662 31.1817 0 20.0994 0C9.01711 0 0 9.01662 0 20.0984C0 31.1801 9.01711 40.1967 20.0994 40.1967ZM20.0994 5.02459C28.4131 5.02459 35.174 11.7852 35.174 20.0984C35.174 28.4115 28.4131 35.1721 20.0994 35.1721C11.7858 35.1721 5.02486 28.4115 5.02486 20.0984C5.02486 11.7852 11.7858 5.02459 20.0994 5.02459Z" fill="white"/>
</svg>
